<svg xmlns="http://www.w3.org/2000/svg" xmlns:svg="http://www.w3.org/2000/svg" xmlns:xlink="http://www.w3.org/1999/xlink" version="1.0" height="1000pt" width="1344.9999141693115pt" viewBox="-20 32 1352.9999141693115 1006" ><defs><style type="text/css">
            @font-face {
                font-family: 'noto_regular';
                src: url('https://app.creately.com/diagram/assets/fonts/noto/noto-regular.woff') format('woff'),
                     url('https://app.creately.com/diagram/assets/fonts/noto/noto-regular.woff2') format('woff2');
                font-weight: normal;
                font-style: normal;
            }
        p {
            margin: 0;
        }
        </style></defs><defs><style>
            span{ display: inline-block; }
        </style></defs><g id="29vh61univ"><g transform="translate(215 35)"><path d="M 25.000001192092896,50.00000238418579 L 25.000001192092896,50.00000238418579 L 25.000001192092896,50.00000238418579 A 25.000001192092896 25.000001192092896 0 0 1 0 25.0000011920929 L 0,25.000001192092896 L 0,25.0000011920929 A 25.000001192092896 25.000001192092896 0 0 1 25.000001192092896 0 L 85.0499975681305,0 L 85.0499975681305,0 L 85.0499975681305,0 A 25.000001192092896 25.000001192092896 0 0 1 110.04999876022339 25.000001192092896 L 110.04999876022339,25.000001192092896 L 110.04999876022339,25.000001192092896 A 25.000001192092896 25.000001192092896 0 0 1 85.0499975681305 50.00000238418579 L 25.000001192092896,50.00000238418579 Z" fill="rgba(249,104,114,1)" stroke="#e85861" stroke-width="1" stroke-linecap="round" stroke-linejoin="round"/></g><g transform="translate(254.5249993801117, 50.500001192092896) rotate(0, 15.5, 9.5)" width="31" height="19"><text text-decoration="none" x="1" fill="rgb(255, 255, 255)" font-size="10pt" font-family="Lato"  y="17">Start</text><text text-decoration="none" x="30" fill="#4b4b4b" font-size="10pt" font-family="noto_regular"  y="17"></text></g></g><g id="5ewuzb2dcn"><g><path d="M 270,85 L 270,95.0000011920929 L 277.5,95.0000011920929 L 285,95.0000011920929 L 285,119.49" fill="none" stroke="#367da5" stroke-width="1.5" stroke-linecap="round" stroke-linejoin="round"/><path d="M 285,119.49 L 290.75,110.79434782608695 L 279.25,110.79434782608695 Z" fill="rgb(54,125,165)" stroke="#367da5" stroke-width="1.5" stroke-linecap="round" stroke-linejoin="round"/></g></g><g id="5ebntsuia8"><g transform="translate(220 190)"><rect x="0" y="0" width="101" height="69.98470544815063" fill="rgba(62,139,185,1)" stroke="#367da5" stroke-width="1" stroke-linecap="round" stroke-linejoin="round"/></g><g transform="translate(226, 199.49235272407532) rotate(0, 44.5, 25.5)" width="89" height="51"><text text-decoration="none" x="5.5" fill="rgb(255, 255, 255)" font-size="10pt" font-family="Lato"  y="14">Ticket&#160;</text><text text-decoration="none" x="43.5" fill="rgb(255, 255, 255)" font-size="10pt" font-family="Lato"  y="14">arrives&#160;</text><text text-decoration="none" x="7.5" fill="rgb(255, 255, 255)" font-size="10pt" font-family="Lato"  y="33">in&#160;&#160;</text><text text-decoration="none" x="24.5" fill="rgb(255, 255, 255)" font-size="10pt" font-family="Lato"  y="33">help&#160;</text><text text-decoration="none" x="53.5" fill="rgb(255, 255, 255)" font-size="10pt" font-family="Lato"  y="33">desk&#160;</text><text text-decoration="none" x="25.5" fill="rgb(255, 255, 255)" font-size="10pt" font-family="Lato"  y="55">queue</text><text text-decoration="none" x="63.5" fill="#4b4b4b" font-size="10pt" font-family="noto_regular"  y="55"></text></g></g><g id="sdsqj1q5u3"><g><path d="M 285,175 L 285,181.9 L 277.5,181.9 L 270,181.9 L 270,190" fill="none" stroke="#367da5" stroke-width="1.5" stroke-linecap="round" stroke-linejoin="round"/><path d="M 270,190 L 275.75,181.30434782608697 L 264.25,181.30434782608697 Z" fill="rgb(54,125,165)" stroke="#367da5" stroke-width="1.5" stroke-linecap="round" stroke-linejoin="round"/></g></g><g id="cco61mvi2x"><g transform="translate(220 295)"><rect x="0" y="0" width="101" height="84.98142457008362" fill="rgba(62,139,185,1)" stroke="#367da5" stroke-width="1" stroke-linecap="round" stroke-linejoin="round"/></g><g transform="translate(233, 311.9907122850418) rotate(0, 37.5, 25.5)" width="75" height="51"><text text-decoration="none" x="15" fill="rgb(255, 255, 255)" font-size="10pt" font-family="Lato"  y="14">ticket&#160;</text><text text-decoration="none" x="51" fill="rgb(255, 255, 255)" font-size="10pt" font-family="Lato"  y="14">is&#160;</text><text text-decoration="none" x="3.5" fill="rgb(255, 255, 255)" font-size="10pt" font-family="Lato"  y="33">assigned&#160;</text><text text-decoration="none" x="58.5" fill="rgb(255, 255, 255)" font-size="10pt" font-family="Lato"  y="33">to&#160;</text><text text-decoration="none" x="20.5" fill="rgb(255, 255, 255)" font-size="10pt" font-family="Lato"  y="55">agent</text><text text-decoration="none" x="54.5" fill="#4b4b4b" font-size="10pt" font-family="noto_regular"  y="55"></text></g></g><g id="582zne2uye"><g><path d="M 270,260 L 270,295" fill="none" stroke="#367da5" stroke-width="1.5" stroke-linecap="round" stroke-linejoin="round"/><path d="M 270,295 L 275.75,286.30434782608694 L 264.25,286.30434782608694 Z" fill="rgb(54,125,165)" stroke="#367da5" stroke-width="1.5" stroke-linecap="round" stroke-linejoin="round"/></g></g><g id="atvc6me5bi"><g transform="translate(190 430)"><rect x="0" y="0" width="120.00000035762787" height="64.98715281486511" fill="rgba(62,139,185,1)" stroke="#367da5" stroke-width="1" stroke-linecap="round" stroke-linejoin="round"/></g><g transform="translate(195.50000017881393, 436.99357640743256) rotate(0, 54.5, 25.5)" width="109" height="51"><text text-decoration="none" x="6" fill="rgb(255, 255, 255)" font-size="10pt" font-family="Lato"  y="14">agent&#160;</text><text text-decoration="none" x="43" fill="rgb(255, 255, 255)" font-size="10pt" font-family="Lato"  y="14">sets&#160;</text><text text-decoration="none" x="70" fill="rgb(255, 255, 255)" font-size="10pt" font-family="Lato"  y="14">ticket&#160;</text><text text-decoration="none" x="8" fill="rgb(255, 255, 255)" font-size="10pt" font-family="Lato"  y="33">to&#160;</text><text text-decoration="none" x="24" fill="rgb(255, 255, 255)" font-size="10pt" font-family="Lato"  y="33">active,&#160;</text><text text-decoration="none" x="65" fill="rgb(255, 255, 255)" font-size="10pt" font-family="Lato"  y="33">works&#160;</text><text text-decoration="none" x="28.5" fill="rgb(255, 255, 255)" font-size="10pt" font-family="Lato"  y="55">on&#160;</text><text text-decoration="none" x="47.5" fill="rgb(255, 255, 255)" font-size="10pt" font-family="Lato"  y="55">ticket</text><text text-decoration="none" x="80.5" fill="#4b4b4b" font-size="10pt" font-family="noto_regular"  y="55"></text></g></g><g id="6btnt299o5"><g><path d="M 270,380 L 270,404.9907122850418 L 260,404.9907122850418 L 250,404.9907122850418 L 250,430" fill="none" stroke="#367da5" stroke-width="1.5" stroke-linecap="round" stroke-linejoin="round"/><path d="M 250,430 L 255.75,421.30434782608694 L 244.25,421.30434782608694 Z" fill="rgb(54,125,165)" stroke="#367da5" stroke-width="1.5" stroke-linecap="round" stroke-linejoin="round"/></g></g><g id="7hzuo8ltlq"><g transform="translate(105 525)"><path d="M 52.49999761581421,0 L 0,50 L 52.49999761581421,100 L 104.99999523162842,50 L 52.49999761581421,0 Z" fill="rgba(255,255,255,1)" stroke="#3298da" stroke-width="1.5" stroke-linecap="round" stroke-linejoin="round"/></g><g transform="translate(125.99999761581421, 557.5) rotate(0, 31.5, 17.5)" width="63" height="35"><text text-decoration="none" x="10.5" fill="rgb(58, 135, 189)" font-size="10pt" font-family="Lato"  y="14">is&#160;</text><text text-decoration="none" x="22.5" fill="rgb(58, 135, 189)" font-size="10pt" font-family="Lato"  y="14">issue&#160;</text><text text-decoration="none" x="3" fill="rgb(58, 135, 189)" font-size="10pt" font-family="Lato"  y="36">resolved?</text><text text-decoration="none" x="60" fill="#4b4b4b" font-size="10pt" font-family="noto_regular"  y="36"></text></g></g><g id="1qgm5keqbt"><g transform="translate(120 685)"><rect x="0" y="0" width="114.99999582767487" height="64.98715281486511" fill="rgba(62,139,185,1)" stroke="#367da5" stroke-width="1" stroke-linecap="round" stroke-linejoin="round"/></g><g transform="translate(120.49999791383743, 691.9935764074326) rotate(0, 57, 25.5)" width="114" height="51"><text text-decoration="none" x="18.5" fill="rgb(255, 255, 255)" font-size="10pt" font-family="Lato"  y="14">Agent&#160;</text><text text-decoration="none" x="56.5" fill="rgb(255, 255, 255)" font-size="10pt" font-family="Lato"  y="14">details&#160;</text><text text-decoration="none" x="6.5" fill="rgb(255, 255, 255)" font-size="10pt" font-family="Lato"  y="33">information,&#160;</text><text text-decoration="none" x="83.5" fill="rgb(255, 255, 255)" font-size="10pt" font-family="Lato"  y="33">sets&#160;</text><text text-decoration="none" x="5.5" fill="rgb(255, 255, 255)" font-size="10pt" font-family="Lato"  y="55">ticket&#160;</text><text text-decoration="none" x="41.5" fill="rgb(255, 255, 255)" font-size="10pt" font-family="Lato"  y="55">to&#160;</text><text text-decoration="none" x="57.5" fill="rgb(255, 255, 255)" font-size="10pt" font-family="Lato"  y="55">resolved</text><text text-decoration="none" x="108.5" fill="#4b4b4b" font-size="10pt" font-family="noto_regular"  y="55"></text></g></g><g id="g86l6pl7n6"><g transform="translate(135 645)"><rect x="0" y="0" width="42.09935814142227" height="31.187131583690643" fill="rgba(255,255,255,0.01)" stroke="rgba(255,255,255,0.01)" stroke-width="NaN" stroke-linecap="round" stroke-linejoin="round"/></g><g transform="translate(145.54967907071114, 651.0935657918453) rotate(0, 10.5, 9.5)" width="21" height="19"><text text-decoration="none" x="0.5" fill="rgb(75, 75, 75)" font-size="10pt" font-family="Lato"  y="17">Yes</text><text text-decoration="none" x="20.5" fill="#4b4b4b" font-size="10pt" font-family="noto_regular"  y="17"></text></g></g><g id="c9jz0ne0wu"><g transform="translate(280 520)"><rect x="0" y="0" width="120.00000035762787" height="64.98715281486511" fill="rgba(62,139,185,1)" stroke="#367da5" stroke-width="1" stroke-linecap="round" stroke-linejoin="round"/></g><g transform="translate(280.00000017881393, 526.9935764074326) rotate(0, 60, 25.5)" width="120" height="51"><text text-decoration="none" x="7.5" fill="rgb(255, 255, 255)" font-size="10pt" font-family="Lato"  y="14">Agent&#160;</text><text text-decoration="none" x="45.5" fill="rgb(255, 255, 255)" font-size="10pt" font-family="Lato"  y="14">emails&#160;</text><text text-decoration="none" x="86.5" fill="rgb(255, 255, 255)" font-size="10pt" font-family="Lato"  y="14">user&#160;</text><text text-decoration="none" x="6" fill="rgb(255, 255, 255)" font-size="10pt" font-family="Lato"  y="33">for&#160;</text><text text-decoration="none" x="26" fill="rgb(255, 255, 255)" font-size="10pt" font-family="Lato"  y="33">more&#160;</text><text text-decoration="none" x="61" fill="rgb(255, 255, 255)" font-size="10pt" font-family="Lato"  y="33">info,&#160;</text><text text-decoration="none" x="90" fill="rgb(255, 255, 255)" font-size="10pt" font-family="Lato"  y="33">sets&#160;</text><text text-decoration="none" x="12.5" fill="rgb(255, 255, 255)" font-size="10pt" font-family="Lato"  y="55">ticket&#160;</text><text text-decoration="none" x="48.5" fill="rgb(255, 255, 255)" font-size="10pt" font-family="Lato"  y="55">to&#160;</text><text text-decoration="none" x="64.5" fill="rgb(255, 255, 255)" font-size="10pt" font-family="Lato"  y="55">waiting</text><text text-decoration="none" x="107.5" fill="#4b4b4b" font-size="10pt" font-family="noto_regular"  y="55"></text></g></g><g id="1u6kgi83no"><g transform="translate(190 540)"><rect x="0" y="0" width="49.01411533355713" height="34.749603271484375" fill="rgba(255,255,255,0.01)" stroke="rgba(255,255,255,0.01)" stroke-width="NaN" stroke-linecap="round" stroke-linejoin="round"/></g><g transform="translate(205.50705766677856, 547.8748016357422) rotate(0, 9, 9.5)" width="18" height="19"><text text-decoration="none" x="0" fill="rgb(75, 75, 75)" font-size="10pt" font-family="Lato"  y="17">No</text><text text-decoration="none" x="18" fill="#4b4b4b" font-size="10pt" font-family="noto_regular"  y="17"></text></g></g><g id="1mmfpqcvsz"><g><path d="M 155,625 L 155,637.5 L 165,637.5 L 175,637.5 L 175,685" fill="none" stroke="#3298da" stroke-width="1.5" stroke-linecap="round" stroke-linejoin="round"/></g></g><g id="1aeyrs5jy6"><g transform="translate(440 520)"><path d="M 62.5,0 L 0,57.499998807907104 L 62.5,114.99999761581421 L 125,57.499998807907104 L 62.5,0 Z" fill="rgba(255,255,255,1)" stroke="#3298da" stroke-width="1.5" stroke-linecap="round" stroke-linejoin="round"/></g><g transform="translate(465, 551.9999988079071) rotate(0, 37.5, 25.5)" width="75" height="51"><text text-decoration="none" x="12.5" fill="rgb(58, 135, 189)" font-size="10pt" font-family="Lato"  y="14">has&#160;</text><text text-decoration="none" x="36.5" fill="rgb(58, 135, 189)" font-size="10pt" font-family="Lato"  y="14">user&#160;</text><text text-decoration="none" x="2" fill="rgb(58, 135, 189)" font-size="10pt" font-family="Lato"  y="33">responded?</text><text text-decoration="none" x="73" fill="rgb(58, 135, 189)" font-size="10pt" font-family="Lato"  y="33"></text><text text-decoration="none" x="6.5" fill="rgb(58, 135, 189)" font-size="10pt" font-family="Lato"  y="55">(&#160;</text><text text-decoration="none" x="13.5" fill="rgb(58, 135, 189)" font-size="10pt" font-family="Lato"  y="55">set&#160;</text><text text-decoration="none" x="34.5" fill="rgb(58, 135, 189)" font-size="10pt" font-family="Lato"  y="55">time&#160;</text><text text-decoration="none" x="64.5" fill="rgb(58, 135, 189)" font-size="10pt" font-family="Lato"  y="55">)</text><text text-decoration="none" x="68.5" fill="#4b4b4b" font-size="10pt" font-family="noto_regular"  y="55"></text></g></g><g id="2iv8ndwk5q"><g transform="translate(455 495)"><rect x="0" y="0" width="54.99802082777023" height="30.729827880859375" fill="rgba(255,255,255,0.01)" stroke="rgba(255,255,255,0.01)" stroke-width="NaN" stroke-linecap="round" stroke-linejoin="round"/></g><g transform="translate(471.9990104138851, 500.8649139404297) rotate(0, 10.5, 9.5)" width="21" height="19"><text text-decoration="none" x="0.5" fill="rgb(75, 75, 75)" font-size="10pt" font-family="Lato"  y="17">Yes</text><text text-decoration="none" x="20.5" fill="#4b4b4b" font-size="10pt" font-family="noto_regular"  y="17"></text></g></g><g id="2cqorlaz7m"><g transform="translate(630 520)"><path d="M 50,0 L 0,50 L 50,100 L 100,50 L 50,0 Z" fill="rgba(255,255,255,1)" stroke="#3298da" stroke-width="1.5" stroke-linecap="round" stroke-linejoin="round"/></g><g transform="translate(646, 552.5) rotate(0, 34, 17.5)" width="68" height="35"><text text-decoration="none" x="3.5" fill="rgb(58, 135, 189)" font-size="10pt" font-family="Lato"  y="14">can&#160;</text><text text-decoration="none" x="27.5" fill="rgb(58, 135, 189)" font-size="10pt" font-family="Lato"  y="14">agent&#160;</text><text text-decoration="none" x="64.5" fill="rgb(58, 135, 189)" font-size="10pt" font-family="Lato"  y="14"></text><text text-decoration="none" x="6.5" fill="rgb(58, 135, 189)" font-size="10pt" font-family="Lato"  y="36">proceed?</text><text text-decoration="none" x="61.5" fill="#4b4b4b" font-size="10pt" font-family="noto_regular"  y="36"></text></g></g><g id="1o8b9da0fe"><g transform="translate(715 535)"><rect x="0" y="0" width="51.798248291015625" height="30.729827880859375" fill="rgba(255,255,255,0.01)" stroke="rgba(255,255,255,0.01)" stroke-width="NaN" stroke-linecap="round" stroke-linejoin="round"/></g><g transform="translate(731.8991241455078, 540.8649139404297) rotate(0, 9, 9.5)" width="18" height="19"><text text-decoration="none" x="0" fill="rgb(75, 75, 75)" font-size="10pt" font-family="Lato"  y="17">No</text><text text-decoration="none" x="18" fill="#4b4b4b" font-size="10pt" font-family="noto_regular"  y="17"></text></g></g><g id="wk2na1jwyl"><g transform="translate(545 515)"><rect x="0" y="0" width="79.99729514122009" height="70.24952697753906" fill="rgba(255,255,255,0.01)" stroke="rgba(255,255,255,0.01)" stroke-width="NaN" stroke-linecap="round" stroke-linejoin="round"/></g><g transform="translate(547.49864757061, 532.6247634887695) rotate(0, 37.5, 17.5)" width="75" height="35"><text text-decoration="none" x="23" fill="rgb(75, 75, 75)" font-size="10pt" font-family="Lato"  y="14">No&#160;</text><text text-decoration="none" x="44" fill="rgb(75, 75, 75)" font-size="10pt" font-family="Lato"  y="14">--</text><text text-decoration="none" x="52" fill="rgb(75, 75, 75)" font-size="10pt" font-family="Lato"  y="14"></text><text text-decoration="none" x="5" fill="rgb(75, 75, 75)" font-size="10pt" font-family="Lato"  y="36">Email&#160;</text><text text-decoration="none" x="40" fill="rgb(75, 75, 75)" font-size="10pt" font-family="Lato"  y="36">User&#160;</text><text text-decoration="none" x="70" fill="#4b4b4b" font-size="10pt" font-family="noto_regular"  y="36"></text></g></g><g id="h2so4m3mqj"><g transform="translate(635 485)"><rect x="0" y="0" width="54.99802082777023" height="30.729827880859375" fill="rgba(255,255,255,0.01)" stroke="rgba(255,255,255,0.01)" stroke-width="NaN" stroke-linecap="round" stroke-linejoin="round"/></g><g transform="translate(651.9990104138851, 490.8649139404297) rotate(0, 10.5, 9.5)" width="21" height="19"><text text-decoration="none" x="0.5" fill="rgb(75, 75, 75)" font-size="10pt" font-family="Lato"  y="17">Yes</text><text text-decoration="none" x="20.5" fill="#4b4b4b" font-size="10pt" font-family="noto_regular"  y="17"></text></g></g><g id="h20hy0pp4s"><g transform="translate(760 510)"><path d="M 57.499998807907104,0 L 0,60.00000238418579 L 57.499998807907104,120.00000476837158 L 114.99999761581421,60.00000238418579 L 57.499998807907104,0 Z" fill="rgba(255,255,255,1)" stroke="#3298da" stroke-width="1.5" stroke-linecap="round" stroke-linejoin="round"/></g><g transform="translate(763.4999988079071, 552.5000023841858) rotate(0, 54, 17.5)" width="108" height="35"><text text-decoration="none" x="5" fill="rgb(58, 135, 189)" font-size="10pt" font-family="Lato"  y="14">does&#160;</text><text text-decoration="none" x="37" fill="rgb(58, 135, 189)" font-size="10pt" font-family="Lato"  y="14">ticket&#160;</text><text text-decoration="none" x="73" fill="rgb(58, 135, 189)" font-size="10pt" font-family="Lato"  y="14">need&#160;</text><text text-decoration="none" x="17.5" fill="rgb(58, 135, 189)" font-size="10pt" font-family="Lato"  y="36">reassigning?</text><text text-decoration="none" x="90.5" fill="#4b4b4b" font-size="10pt" font-family="noto_regular"  y="36"></text></g></g><g id="2otgr4ssgv"><g transform="translate(235 105)"><path d="M 0.5,30.5 L 0.5,68.3 L 99.5,68.3 L 99.5,0.5 L 0.5,30.5" fill="rgb(62, 139, 185)" stroke="rgb(54, 125, 165)" stroke-width="1" stroke-linecap="round" stroke-linejoin="round" stroke-dasharray="0 0"/></g><g transform="translate(245.60000000000002, 147.4) rotate(0, 31, 0)" width="62" height="37"><text text-decoration="none" x="3.5" fill="#ffffff" font-size="11pt" font-family="Lato"  y="16">Ticket&#160;</text><text text-decoration="none" x="47.5" fill="#ffffff" font-size="11pt" font-family="Lato"  y="16">is</text><text text-decoration="none" x="58.5" fill="#ffffff" font-size="11pt" font-family="Lato"  y="16"></text><text text-decoration="none" x="3.5" fill="#ffffff" font-size="11pt" font-family="Lato"  y="38">created&#160;</text><text text-decoration="none" x="58.5" fill="#4b4b4b" font-size="10pt" font-family="noto_regular"  y="38"></text></g></g><g id="2aos29dyb9"><g transform="translate(310 185)"><rect x="0" y="0" width="194.99999284744263" height="88.9996337890625" fill="rgba(255,255,255,0.01)" stroke="rgba(255,255,255,0.01)" stroke-width="NaN" stroke-linecap="round" stroke-linejoin="round"/></g><g transform="translate(317.9999964237213, 203.99981689453125) rotate(0, 89.5, 25.5)" width="179" height="51"><text text-decoration="none" x="33" fill="rgb(75, 75, 75)" font-size="10pt" font-family="Lato"  y="14">Status:&#160;</text><text text-decoration="none" x="77" fill="rgb(75, 75, 75)" font-size="10pt" font-family="Lato"  y="14">Unassigned</text><text text-decoration="none" x="146" fill="rgb(75, 75, 75)" font-size="10pt" font-family="Lato"  y="14"></text><text text-decoration="none" x="8.5" fill="rgb(75, 75, 75)" font-size="10pt" font-family="Lato"  y="33">Email&#160;</text><text text-decoration="none" x="43.5" fill="rgb(75, 75, 75)" font-size="10pt" font-family="Lato"  y="33">requester&#160;</text><text text-decoration="none" x="104.5" fill="rgb(75, 75, 75)" font-size="10pt" font-family="Lato"  y="33">and&#160;</text><text text-decoration="none" x="130.5" fill="rgb(75, 75, 75)" font-size="10pt" font-family="Lato"  y="33">agents&#160;</text><text text-decoration="none" x="41.5" fill="rgb(75, 75, 75)" font-size="10pt" font-family="Lato"  y="55">&#x22;ticket&#160;</text><text text-decoration="none" x="82.5" fill="rgb(75, 75, 75)" font-size="10pt" font-family="Lato"  y="55">received&#x22;</text><text text-decoration="none" x="137.5" fill="#4b4b4b" font-size="10pt" font-family="noto_regular"  y="55"></text></g></g><g id="1c9b9hvgsr"><g transform="translate(-5 285)"><rect x="0" y="0" width="229.89649772644043" height="102.72953796386719" fill="rgba(255,255,255,0.01)" stroke="rgba(255,255,255,0.01)" stroke-width="NaN" stroke-linecap="round" stroke-linejoin="round"/></g><g transform="translate(13.448248863220215, 310.8647689819336) rotate(0, 96.5, 25.5)" width="193" height="51"><text text-decoration="none" x="48" fill="rgb(75, 75, 75)" font-size="10pt" font-family="Lato"  y="14">Status:&#160;</text><text text-decoration="none" x="92" fill="rgb(75, 75, 75)" font-size="10pt" font-family="Lato"  y="14">Assigned</text><text text-decoration="none" x="145" fill="rgb(75, 75, 75)" font-size="10pt" font-family="Lato"  y="14"></text><text text-decoration="none" x="9.5" fill="rgb(75, 75, 75)" font-size="10pt" font-family="Lato"  y="33">Email&#160;</text><text text-decoration="none" x="44.5" fill="rgb(75, 75, 75)" font-size="10pt" font-family="Lato"  y="33">requester&#160;</text><text text-decoration="none" x="105.5" fill="rgb(75, 75, 75)" font-size="10pt" font-family="Lato"  y="33">and&#160;</text><text text-decoration="none" x="131.5" fill="rgb(75, 75, 75)" font-size="10pt" font-family="Lato"  y="33">assigned&#160;</text><text text-decoration="none" x="27.5" fill="rgb(75, 75, 75)" font-size="10pt" font-family="Lato"  y="55">agent&#160;&#160;</text><text text-decoration="none" x="67.5" fill="rgb(75, 75, 75)" font-size="10pt" font-family="Lato"  y="55">&#x22;ticket&#160;</text><text text-decoration="none" x="108.5" fill="rgb(75, 75, 75)" font-size="10pt" font-family="Lato"  y="55">assigned&#x22;</text><text text-decoration="none" x="165.5" fill="#4b4b4b" font-size="10pt" font-family="noto_regular"  y="55"></text></g></g><g id="ufptgg0f2n"><g transform="translate(0 425)"><rect x="0" y="0" width="119.99817788600922" height="34.749603271484375" fill="rgba(255,255,255,0.01)" stroke="rgba(255,255,255,0.01)" stroke-width="NaN" stroke-linecap="round" stroke-linejoin="round"/></g><g transform="translate(14.999088943004608, 432.8748016357422) rotate(0, 45, 9.5)" width="90" height="19"><text text-decoration="none" x="5" fill="rgb(75, 75, 75)" font-size="10pt" font-family="Lato"  y="17">Status:&#160;</text><text text-decoration="none" x="49" fill="rgb(75, 75, 75)" font-size="10pt" font-family="Lato"  y="17">Active</text><text text-decoration="none" x="85" fill="#4b4b4b" font-size="10pt" font-family="noto_regular"  y="17"></text></g></g><g id="5uqthc5zjh"><g transform="translate(235 855)"><rect x="0" y="0" width="49.01411533355713" height="34.749603271484375" fill="rgba(255,255,255,0.01)" stroke="rgba(255,255,255,0.01)" stroke-width="NaN" stroke-linecap="round" stroke-linejoin="round"/></g><g transform="translate(250.50705766677856, 862.8748016357422) rotate(0, 9, 9.5)" width="18" height="19"><text text-decoration="none" x="0" fill="rgb(75, 75, 75)" font-size="10pt" font-family="Lato"  y="17">No</text><text text-decoration="none" x="18" fill="#4b4b4b" font-size="10pt" font-family="noto_regular"  y="17"></text></g></g><g id="ld3flzwi7f"><g><path d="M 210,575 L 244.9999976158142,575 L 244.9999976158142,570 L 244.9999976158142,565 L 280,565" fill="none" stroke="#3298da" stroke-width="1.5" stroke-linecap="round" stroke-linejoin="round"/></g></g><g id="bjec7irmr7"><g><path d="M 250,495 L 250,509.99357640743256 L 202.5,509.99357640743256 L 155,509.99357640743256 L 155,525" fill="none" stroke="#367da5" stroke-width="1.5" stroke-linecap="round" stroke-linejoin="round"/><path d="M 155,525 L 160.75,516.304347826087 L 149.25,516.304347826087 Z" fill="rgb(54,125,165)" stroke="#367da5" stroke-width="1.5" stroke-linecap="round" stroke-linejoin="round"/></g></g><g id="1y5j9rl1hl"><g><path d="M 400,565 L 420.00000017881393,565 L 420.00000017881393,570 L 420.00000017881393,575 L 440,575" fill="none" stroke="#367da5" stroke-width="1.5" stroke-linecap="round" stroke-linejoin="round"/><path d="M 440,575 L 431.30434782608694,569.25 L 431.30434782608694,580.75 Z" fill="rgb(54,125,165)" stroke="#367da5" stroke-width="1.5" stroke-linecap="round" stroke-linejoin="round"/></g></g><g id="yn4nprmg3k"><g><path d="M 310,460 L 505,460 L 505,520" fill="none" stroke="#3298da" stroke-width="1.5" stroke-linecap="round" stroke-linejoin="round"/></g></g><g id="2jxwjqaoxh"><g><path d="M 565,575 L 597.5,575 L 597.5,572.5 L 597.5,570 L 630,570" fill="none" stroke="#3298da" stroke-width="1.5" stroke-linecap="round" stroke-linejoin="round"/></g></g><g id="wqgkhej1fp"><g><path d="M 680,520 L 682,520 L 682,490.5 L 682,461 L 604.5,460.5 L 527,460 L 505,460" fill="none" stroke="#3298da" stroke-width="1.5" stroke-linecap="round" stroke-linejoin="round"/></g></g><g id="21440rdnw7"><g><path d="M 730,570 L 760,570" fill="none" stroke="#3298da" stroke-width="1.5" stroke-linecap="round" stroke-linejoin="round"/></g></g><g id="98ovke5pfu"><g><path d="M 815,510 L 815,335 L 320,335" fill="none" stroke="#3298da" stroke-width="1.5" stroke-linecap="round" stroke-linejoin="round"/></g></g><g id="6oswp9y6lo"><g transform="translate(765 470)"><rect x="0" y="0" width="54.99802082777023" height="30.729827880859375" fill="rgba(255,255,255,0.01)" stroke="rgba(255,255,255,0.01)" stroke-width="NaN" stroke-linecap="round" stroke-linejoin="round"/></g><g transform="translate(781.9990104138851, 475.8649139404297) rotate(0, 10.5, 9.5)" width="21" height="19"><text text-decoration="none" x="0.5" fill="rgb(75, 75, 75)" font-size="10pt" font-family="Lato"  y="17">Yes</text><text text-decoration="none" x="20.5" fill="#4b4b4b" font-size="10pt" font-family="noto_regular"  y="17"></text></g></g><g id="1o4y47o017"><g transform="translate(860 535)"><rect x="0" y="0" width="54.99802082777023" height="30.729827880859375" fill="rgba(255,255,255,0.01)" stroke="rgba(255,255,255,0.01)" stroke-width="NaN" stroke-linecap="round" stroke-linejoin="round"/></g><g transform="translate(878.4990104138851, 540.8649139404297) rotate(0, 9, 9.5)" width="18" height="19"><text text-decoration="none" x="0" fill="rgb(75, 75, 75)" font-size="10pt" font-family="Lato"  y="17">No</text><text text-decoration="none" x="18" fill="#4b4b4b" font-size="10pt" font-family="noto_regular"  y="17"></text></g></g><g id="22q708pf0q"><g transform="translate(120 920)"><rect x="0" y="0" width="54.99802082777023" height="30.729827880859375" fill="rgba(255,255,255,0.01)" stroke="rgba(255,255,255,0.01)" stroke-width="NaN" stroke-linecap="round" stroke-linejoin="round"/></g><g transform="translate(136.99901041388512, 925.8649139404297) rotate(0, 10.5, 9.5)" width="21" height="19"><text text-decoration="none" x="0.5" fill="rgb(75, 75, 75)" font-size="10pt" font-family="Lato"  y="17">Yes</text><text text-decoration="none" x="20.5" fill="#4b4b4b" font-size="10pt" font-family="noto_regular"  y="17"></text></g></g><g id="1dcljrpswp"><g transform="translate(1120 550)"><rect x="0" y="0" width="120.00000035762787" height="64.98715281486511" fill="rgba(62,139,185,1)" stroke="#367da5" stroke-width="1" stroke-linecap="round" stroke-linejoin="round"/></g><g transform="translate(1125.500000178814, 556.9935764074326) rotate(0, 54.5, 25.5)" width="109" height="51"><text text-decoration="none" x="6" fill="rgb(255, 255, 255)" font-size="10pt" font-family="Lato"  y="14">agent&#160;</text><text text-decoration="none" x="43" fill="rgb(255, 255, 255)" font-size="10pt" font-family="Lato"  y="14">sets&#160;</text><text text-decoration="none" x="70" fill="rgb(255, 255, 255)" font-size="10pt" font-family="Lato"  y="14">ticket&#160;</text><text text-decoration="none" x="29" fill="rgb(255, 255, 255)" font-size="10pt" font-family="Lato"  y="33">to&#160;</text><text text-decoration="none" x="45" fill="rgb(255, 255, 255)" font-size="10pt" font-family="Lato"  y="33">&#x22;work&#160;</text><text text-decoration="none" x="21.5" fill="rgb(255, 255, 255)" font-size="10pt" font-family="Lato"  y="55">scheduled&#x22;</text><text text-decoration="none" x="87.5" fill="#4b4b4b" font-size="10pt" font-family="noto_regular"  y="55"></text></g></g><g id="2938lrla18"><g><path d="M 1060,570 L 1089.999998807907,570 L 1089.999998807907,575 L 1089.999998807907,580 L 1120,580" fill="none" stroke="#3298da" stroke-width="1.5" stroke-linecap="round" stroke-linejoin="round"/></g></g><g id="19dwz7xfiq"><g transform="translate(950 840)"><rect x="0" y="0" width="120.00000035762787" height="64.98715281486511" fill="rgba(62,139,185,1)" stroke="#367da5" stroke-width="1" stroke-linecap="round" stroke-linejoin="round"/></g><g transform="translate(966.0000001788139, 846.9935764074326) rotate(0, 44, 25.5)" width="88" height="51"><text text-decoration="none" x="15" fill="rgb(255, 255, 255)" font-size="10pt" font-family="Lato"  y="14">work&#160;</text><text text-decoration="none" x="48" fill="rgb(255, 255, 255)" font-size="10pt" font-family="Lato"  y="14">gets&#160;</text><text text-decoration="none" x="4" fill="rgb(255, 255, 255)" font-size="10pt" font-family="Lato"  y="33">completed&#160;</text><text text-decoration="none" x="71" fill="rgb(255, 255, 255)" font-size="10pt" font-family="Lato"  y="33">as&#160;</text><text text-decoration="none" x="13.5" fill="rgb(255, 255, 255)" font-size="10pt" font-family="Lato"  y="55">scheduled</text><text text-decoration="none" x="74.5" fill="#4b4b4b" font-size="10pt" font-family="noto_regular"  y="55"></text></g></g><g id="x4ffght9sf"><g><path d="M 1180,615 L 1180,727.4935764074326 L 1095,727.4935764074326 L 1010,727.4935764074326 L 1010,840" fill="none" stroke="#367da5" stroke-width="1.5" stroke-linecap="round" stroke-linejoin="round"/><path d="M 1010,840 L 1015.75,831.304347826087 L 1004.25,831.304347826087 Z" fill="rgb(54,125,165)" stroke="#367da5" stroke-width="1.5" stroke-linecap="round" stroke-linejoin="round"/></g></g><g id="5f5u676ps7"><g><path d="M 950,870 L 592.4999979138374,870 L 592.4999979138374,800 L 592.4999979138374,730 L 235,730" fill="none" stroke="#367da5" stroke-width="1.5" stroke-linecap="round" stroke-linejoin="round"/><path d="M 235,730 L 243.69565217391303,735.75 L 243.69565217391303,724.25 Z" fill="rgb(54,125,165)" stroke="#367da5" stroke-width="1.5" stroke-linecap="round" stroke-linejoin="round"/></g></g><g id="1vqjgjyjpu"><g transform="translate(305 850)"><rect x="0" y="0" width="120.00000035762787" height="64.98715281486511" fill="rgba(62,139,185,1)" stroke="#367da5" stroke-width="1" stroke-linecap="round" stroke-linejoin="round"/></g><g transform="translate(321.00000017881393, 864.9935764074326) rotate(0, 44, 17.5)" width="88" height="35"><text text-decoration="none" x="5" fill="rgb(255, 255, 255)" font-size="10pt" font-family="Lato"  y="14">Ticket&#160;</text><text text-decoration="none" x="43" fill="rgb(255, 255, 255)" font-size="10pt" font-family="Lato"  y="14">is&#160;</text><text text-decoration="none" x="55" fill="rgb(255, 255, 255)" font-size="10pt" font-family="Lato"  y="14">auto&#160;</text><text text-decoration="none" x="25" fill="rgb(255, 255, 255)" font-size="10pt" font-family="Lato"  y="36">closed</text><text text-decoration="none" x="63" fill="#4b4b4b" font-size="10pt" font-family="noto_regular"  y="36"></text></g></g><g id="1ec02kv7cf"><g transform="translate(1015 665)"><rect x="0" y="0" width="150" height="37" fill="rgba(255,255,255,0.01)" stroke="rgba(255,255,255,0.01)" stroke-width="NaN" stroke-linecap="round" stroke-linejoin="round"/></g><g transform="translate(1045, 674) rotate(0, 45, 9.5)" width="90" height="19"><text text-decoration="none" x="5" fill="rgb(75, 75, 75)" font-size="10pt" font-family="Lato"  y="17">Status:&#160;</text><text text-decoration="none" x="49" fill="rgb(75, 75, 75)" font-size="10pt" font-family="Lato"  y="17">Active</text><text text-decoration="none" x="85" fill="#4b4b4b" font-size="10pt" font-family="noto_regular"  y="17"></text></g></g><g id="2425mkawkj"><g transform="translate(1240 555)"><rect x="0" y="0" width="89.99991416931152" height="51.49998474121094" fill="rgba(255,255,255,0.01)" stroke="rgba(255,255,255,0.01)" stroke-width="NaN" stroke-linecap="round" stroke-linejoin="round"/></g><g transform="translate(1243.9999570846558, 563.2499923706055) rotate(0, 41, 17.5)" width="82" height="35"><text text-decoration="none" x="3" fill="rgb(75, 75, 75)" font-size="10pt" font-family="Lato"  y="14">Status:&#160;</text><text text-decoration="none" x="47" fill="rgb(75, 75, 75)" font-size="10pt" font-family="Lato"  y="14">Work&#160;</text><text text-decoration="none" x="10" fill="rgb(75, 75, 75)" font-size="10pt" font-family="Lato"  y="36">Scheduled</text><text text-decoration="none" x="72" fill="#4b4b4b" font-size="10pt" font-family="noto_regular"  y="36"></text></g></g><g id="2q46o00lpa"><g transform="translate(-15 725)"><rect x="0" y="0" width="150" height="37" fill="rgba(255,255,255,0.01)" stroke="rgba(255,255,255,0.01)" stroke-width="NaN" stroke-linecap="round" stroke-linejoin="round"/></g><g transform="translate(-15, 718) rotate(0, 75, 25.5)" width="150" height="51"><text text-decoration="none" x="26" fill="rgb(75, 75, 75)" font-size="10pt" font-family="Lato"  y="14">Status:&#160;</text><text text-decoration="none" x="70" fill="rgb(75, 75, 75)" font-size="10pt" font-family="Lato"  y="14">Resolved</text><text text-decoration="none" x="124" fill="rgb(75, 75, 75)" font-size="10pt" font-family="Lato"  y="14"></text><text text-decoration="none" x="8" fill="rgb(75, 75, 75)" font-size="10pt" font-family="Lato"  y="33">Email&#160;</text><text text-decoration="none" x="43" fill="rgb(75, 75, 75)" font-size="10pt" font-family="Lato"  y="33">requester&#160;</text><text text-decoration="none" x="104" fill="rgb(75, 75, 75)" font-size="10pt" font-family="Lato"  y="33">&#x22;ticket&#160;</text><text text-decoration="none" x="47" fill="rgb(75, 75, 75)" font-size="10pt" font-family="Lato"  y="55">resolved&#x22;</text><text text-decoration="none" x="103" fill="#4b4b4b" font-size="10pt" font-family="noto_regular"  y="55"></text></g></g><g id="5mwgpn9y8n"><g transform="translate(130 830)"><path d="M 50,0 L 0,50 L 50,100 L 100,50 L 50,0 Z" fill="rgba(255,255,255,1)" stroke="#3298da" stroke-width="1.5" stroke-linecap="round" stroke-linejoin="round"/></g><g transform="translate(131.5, 862.5) rotate(0, 48.5, 17.5)" width="97" height="35"><text text-decoration="none" x="3.5" fill="rgb(58, 135, 189)" font-size="10pt" font-family="Lato"  y="14">does&#160;</text><text text-decoration="none" x="35.5" fill="rgb(58, 135, 189)" font-size="10pt" font-family="Lato"  y="14">requester&#160;</text><text text-decoration="none" x="20.5" fill="rgb(58, 135, 189)" font-size="10pt" font-family="Lato"  y="36">respond?</text><text text-decoration="none" x="76.5" fill="#4b4b4b" font-size="10pt" font-family="noto_regular"  y="36"></text></g></g><g id="1tiljljpsb"><g><path d="M 180,930 L 180,952 L 93,952 L 6,952 L 6,706 L 6,460 L 190,460" fill="none" stroke="#3298da" stroke-width="1.5" stroke-linecap="round" stroke-linejoin="round"/><path d="M 190,460 L 181.30434782608697,454.25 L 181.30434782608697,465.75 Z" fill="rgb(50,152,218)" stroke="#3298da" stroke-width="1.5" stroke-linecap="round" stroke-linejoin="round"/></g></g><g id="1zoc8xpk19"><g><path d="M 175,775 L 175,814.364990234375 L 177.5,814.364990234375 L 180,814.364990234375 L 180,830" fill="none"/></g></g><g id="6fo1oooc0d"><g><path d="M 230,880 L 305,880" fill="none" stroke="#3298da" stroke-width="1.5" stroke-linecap="round" stroke-linejoin="round"/></g></g><g id="t17kzfsm9n"><g transform="translate(315 990)"><path d="M 22.5,45 L 22.5,45 L 22.5,45 A 22.5 22.5 0 0 1 0 22.500000000000004 L 0,22.5 L 0,22.500000000000004 A 22.5 22.5 0 0 1 22.5 0 L 67.4999988079071,0 L 67.4999988079071,0 L 67.4999988079071,0 A 22.5 22.5 0 0 1 89.9999988079071 22.5 L 89.9999988079071,22.5 L 89.9999988079071,22.5 A 22.5 22.5 0 0 1 67.4999988079071 45 L 22.5,45 Z" fill="rgba(249,104,114,1)" stroke="#e85861" stroke-width="1" stroke-linecap="round" stroke-linejoin="round"/></g><g transform="translate(347.99999940395355, 1003) rotate(0, 12, 9.5)" width="24" height="19"><text text-decoration="none" x="0.5" fill="rgb(255, 255, 255)" font-size="10pt" font-family="Lato"  y="17">End</text><text text-decoration="none" x="23.5" fill="#4b4b4b" font-size="10pt" font-family="noto_regular"  y="17"></text></g></g><g id="21l2g853ii"><g><path d="M 365,915 L 365,952.4935764074326 L 362.5,952.4935764074326 L 360,952.4935764074326 L 360,990" fill="none" stroke="#367da5" stroke-width="1.5" stroke-linecap="round" stroke-linejoin="round"/><path d="M 360,990 L 365.75,981.304347826087 L 354.25,981.304347826087 Z" fill="rgb(54,125,165)" stroke="#367da5" stroke-width="1.5" stroke-linecap="round" stroke-linejoin="round"/></g></g><g id="13wdpj9q94"><g transform="translate(265 610)"><rect x="0" y="0" width="150" height="44.979158878326416" fill="rgba(255,255,255,0.01)" stroke="rgba(255,255,255,0.01)" stroke-width="NaN" stroke-linecap="round" stroke-linejoin="round"/></g><g transform="translate(291, 614.9895794391632) rotate(0, 49, 17.5)" width="98" height="35"><text text-decoration="none" x="4.5" fill="rgb(75, 75, 75)" font-size="10pt" font-family="Lato"  y="14">Status:&#160;</text><text text-decoration="none" x="48.5" fill="rgb(75, 75, 75)" font-size="10pt" font-family="Lato"  y="14">Waiting</text><text text-decoration="none" x="93.5" fill="rgb(75, 75, 75)" font-size="10pt" font-family="Lato"  y="14"></text><text text-decoration="none" x="49" fill="#4b4b4b" font-size="10pt" font-family="noto_regular"  y="36"></text></g></g><g id="1fk4gb9pyt"><g transform="translate(360 925)"><rect x="0" y="0" width="150" height="37" fill="rgba(255,255,255,0.01)" stroke="rgba(255,255,255,0.01)" stroke-width="NaN" stroke-linecap="round" stroke-linejoin="round"/></g><g transform="translate(388.5, 934) rotate(0, 46.5, 9.5)" width="93" height="19"><text text-decoration="none" x="4.5" fill="rgb(75, 75, 75)" font-size="10pt" font-family="Lato"  y="17">Status:&#160;</text><text text-decoration="none" x="48.5" fill="rgb(75, 75, 75)" font-size="10pt" font-family="Lato"  y="17">Closed</text><text text-decoration="none" x="88.5" fill="#4b4b4b" font-size="10pt" font-family="noto_regular"  y="17"></text></g></g><g id="12cb9yauri"><g transform="translate(945 510)"><path d="M 57.499998807907104,0 L 0,60.00000238418579 L 57.499998807907104,120.00000476837158 L 114.99999761581421,60.00000238418579 L 57.499998807907104,0 Z" fill="rgba(255,255,255,1)" stroke="#3298da" stroke-width="1.5" stroke-linecap="round" stroke-linejoin="round"/></g><g transform="translate(947.9999988079071, 552.5000023841858) rotate(0, 54.5, 17.5)" width="109" height="35"><text text-decoration="none" x="5.5" fill="rgb(58, 135, 189)" font-size="10pt" font-family="Lato"  y="14">does&#160;</text><text text-decoration="none" x="37.5" fill="rgb(58, 135, 189)" font-size="10pt" font-family="Lato"  y="14">ticket&#160;</text><text text-decoration="none" x="73.5" fill="rgb(58, 135, 189)" font-size="10pt" font-family="Lato"  y="14">need&#160;</text><text text-decoration="none" x="4.5" fill="rgb(58, 135, 189)" font-size="10pt" font-family="Lato"  y="36">work&#160;</text><text text-decoration="none" x="37.5" fill="rgb(58, 135, 189)" font-size="10pt" font-family="Lato"  y="36">scheduled?</text><text text-decoration="none" x="104.5" fill="#4b4b4b" font-size="10pt" font-family="noto_regular"  y="36"></text></g></g><g id="2rnss7s43i"><g><path d="M 875,570 L 945,570" fill="none" stroke="#3298da" stroke-width="1.5" stroke-linecap="round" stroke-linejoin="round"/></g></g><g id="qa8zp8oas1"><g transform="translate(1040 535)"><rect x="0" y="0" width="54.99802082777023" height="30.729827880859375" fill="rgba(255,255,255,0.01)" stroke="rgba(255,255,255,0.01)" stroke-width="NaN" stroke-linecap="round" stroke-linejoin="round"/></g><g transform="translate(1056.9990104138851, 540.8649139404297) rotate(0, 10.5, 9.5)" width="21" height="19"><text text-decoration="none" x="0.5" fill="rgb(75, 75, 75)" font-size="10pt" font-family="Lato"  y="17">Yes</text><text text-decoration="none" x="20.5" fill="#4b4b4b" font-size="10pt" font-family="noto_regular"  y="17"></text></g></g><g id="1xdniuui19"><g transform="translate(955 625)"><rect x="0" y="0" width="54.99802082777023" height="30.729827880859375" fill="rgba(255,255,255,0.01)" stroke="rgba(255,255,255,0.01)" stroke-width="NaN" stroke-linecap="round" stroke-linejoin="round"/></g><g transform="translate(973.4990104138851, 630.8649139404297) rotate(0, 9, 9.5)" width="18" height="19"><text text-decoration="none" x="0" fill="rgb(75, 75, 75)" font-size="10pt" font-family="Lato"  y="17">No</text><text text-decoration="none" x="18" fill="#4b4b4b" font-size="10pt" font-family="noto_regular"  y="17"></text></g></g><g id="jhwgjwvr3t"><g><path d="M 1000,630 L 1004,630 L 1004,663.5 L 1004,697 L 901.5,697 L 799,697 L 799,697 L 799,697 L 667,697 L 535,697 L 535,730" fill="none" stroke="#3298da" stroke-width="1.5" stroke-linecap="round" stroke-linejoin="round"/></g></g></svg>